<svg width="198" height="63" viewBox="0 0 198 63" fill="none" xmlns="http://www.w3.org/2000/svg">
<g clip-path="url(#clip0_54_463)">
<path d="M24.8884 32.2941V28.3032H24.9704H28.1686V30.2579H25.6674V32.3348L49.8588 42.0272V0.529419H0V42.1493L24.8884 32.2941ZM34.1959 9.08146H36.615V18C36.615 20.6878 38.3371 22.3575 40.5923 22.3575C42.8474 22.3575 44.5695 20.7285 44.5695 18V9.08146H46.9886V17.9593C46.9886 22.6018 44.0364 25.086 40.5923 25.086C37.1481 25.086 34.1959 22.5611 34.1959 17.9593V9.08146ZM20.4191 9.08146H23.2483L30.6287 20.6471V9.08146H33.0478V24.4751H30.2187L22.8383 12.9095V24.4751H20.4191V9.08146ZM3.6902 9.08146H6.80638L11.3166 19.3846C12.7927 15.9231 14.2688 12.4208 15.7039 9.08146H18.697L19.2301 24.4751H16.8109L16.4419 13.1131L12.1367 23.1312H10.4146L5.98633 13.1539L5.61731 24.5158H3.19818L3.6902 9.08146Z" fill="white"/>
<path d="M3.07517 49.3575H0V63H3.23918V49.3575H3.15718C3.11617 49.3575 3.11617 49.3575 3.07517 49.3575Z" fill="white"/>
<path d="M16.4419 49.3575H13.5308H13.4898H13.4077V63H16.5649V49.3575H16.5239C16.4829 49.3575 16.4419 49.3575 16.4419 49.3575Z" fill="white"/>
<path d="M22.8383 49.3575H20.2141H20.1731H20.0911V63H23.2483V49.3982H23.2073C23.0433 49.3982 22.9613 49.3575 22.8383 49.3575Z" fill="white"/>
<path d="M27.1845 49.3575C27.0615 49.3982 26.9795 49.3982 26.8565 49.3982H26.7335V63H29.8907V49.3575H27.1845Z" fill="white"/>
<path d="M33.3759 49.3575V63H36.533V49.3575C36.533 49.3575 36.533 49.3575 36.492 49.3575H33.3759Z" fill="white"/>
<path d="M40.2232 49.3575H40.0592V63H43.2164V49.3575H40.3052C40.2642 49.3575 40.2642 49.3575 40.2232 49.3575Z" fill="white"/>
<path d="M46.9066 49.3575H46.7426V63H49.8998V49.3575H46.9886C46.9476 49.3575 46.9066 49.3575 46.9066 49.3575Z" fill="white"/>
<path d="M9.71755 49.3575H6.80639H6.76538H6.72438V63H9.88156V49.3575H9.79955C9.75855 49.3575 9.75855 49.3575 9.71755 49.3575Z" fill="white"/>
<path d="M68.6378 5.04978L63.7995 16.2489H61.8724L56.9112 5.04978L56.5011 17.7557H53.795L54.369 0.529419H57.8542L62.9385 12.0543C64.6196 8.18553 66.2597 4.27603 67.8588 0.529419H71.221L71.795 17.7557H69.0478L68.6378 5.04978Z" fill="white"/>
<path d="M84.9977 14.5792H77.4533L76.3052 17.7557H73.5581L79.7494 0.529419H82.8246L89.0159 17.7557H86.1458L84.9977 14.5792ZM78.5194 11.5656H83.9317L81.2255 4.07241L78.5194 11.5656Z" fill="white"/>
<path d="M104.597 21.9095C103.654 21.9095 102.67 21.4615 101.85 20.5249L99.7585 18.1629C99.3895 18.2443 98.9795 18.2443 98.5695 18.2443C93.6082 18.2443 90.369 13.9683 90.369 8.95926C90.369 3.29863 94.1002 0.0407104 98.5695 0.0407104C103.039 0.0407104 106.77 3.29863 106.77 8.95926C106.77 12.4208 105.253 15.4344 102.711 17.0633L103.367 17.7556C103.982 18.4072 104.556 18.733 105.13 18.733C105.663 18.733 106.237 18.4072 106.77 18.0407L107.59 20.7285C106.893 21.3801 105.417 21.9095 104.597 21.9095ZM93.1572 8.95926C93.1572 12.6651 95.6583 15.2308 98.5695 15.2308C101.481 15.2308 103.982 12.6651 103.982 8.95926C103.982 5.25338 101.44 3.09501 98.5695 3.09501C95.7403 3.09501 93.1572 5.25338 93.1572 8.95926Z" fill="white"/>
<path d="M119.604 4.43892C118.128 3.66516 116.364 3.0543 114.642 3.0543C112.879 3.0543 111.608 3.58371 111.608 4.88688C111.608 6.51584 113.74 6.88236 115.954 7.57466C118.374 8.34842 120.916 9.48869 120.916 12.8281C120.916 16.2081 118.087 18.3665 114.724 18.3665C112.715 18.3665 110.337 17.6742 108.738 16.7783L109.394 13.7647C110.87 14.5792 112.797 15.3529 114.601 15.3529C116.569 15.3529 118.21 14.7828 118.21 12.9502C118.21 11.5249 116.528 11.0362 114.56 10.5068C111.977 9.73304 108.943 8.67421 108.943 5.13123C108.943 1.99548 111.321 0.0814514 114.601 0.0814514C116.446 0.0814514 118.907 0.692311 120.383 1.42534L119.604 4.43892Z" fill="white"/>
<path d="M135.103 10.5475V0.529419H137.809V10.4253C137.809 15.5973 134.487 18.4072 130.592 18.4072C126.697 18.4072 123.376 15.5973 123.376 10.4253V0.529419H126.082V10.5068C126.082 13.5204 128.05 15.3937 130.551 15.3937C133.134 15.3937 135.103 13.5611 135.103 10.5475Z" fill="white"/>
<path d="M139.531 0.529419H153.021V3.58372H147.649V17.7557H144.902V3.58372H139.531V0.529419Z" fill="white"/>
<path d="M56.6651 40.0317H53.959V22.8054H57.1162L65.4396 35.7556V22.8054H68.1458V40.0317H64.9886L56.6651 27.0814V40.0317Z" fill="white"/>
<path d="M81.5535 36.8552H74.0091L72.8611 40.0317H70.1139L76.3052 22.8054H79.3804L85.5718 40.0317H82.7016L81.5535 36.8552ZM75.0752 33.8416H80.4875L77.7813 26.3484L75.0752 33.8416Z" fill="white"/>
<path d="M99.2255 40.3575C97.9954 40.3575 97.0524 39.7466 96.1503 38.362C95.2893 37.0181 94.4693 35.267 93.6082 33.8009H90.246V39.9909H87.5399V22.8054H94.5513C97.4624 22.8054 99.9226 24.9231 99.9226 28.181C99.9226 30.7059 98.5285 32.5792 96.5194 33.3529L98.2415 36.2851C98.5695 36.8552 99.0615 37.1403 99.5125 37.1403C99.9636 37.1403 100.456 36.8552 100.989 36.4072L101.809 39.095C101.03 39.9095 100.128 40.3575 99.2255 40.3575ZM90.246 25.819V30.9095H94.1002C96.0273 30.9095 97.2164 30.0136 97.2164 28.181C97.2164 26.7149 96.1913 25.819 94.5513 25.819H90.246Z" fill="white"/>
<path d="M106.483 22.8054H103.777V40.0317H106.483V22.8054Z" fill="white"/>
<path d="M112.756 31.5611L119.809 22.8054H123.253L116.118 31.4389L123.335 40.0317H119.645L112.756 31.724V40.0317H110.009V22.8054H112.756V31.5611Z" fill="white"/>
<path d="M137.358 27.4072C137.358 28.7511 136.825 29.8507 135.964 30.7059C137.276 31.4796 138.219 32.8235 138.219 34.6968C138.219 37.8733 135.841 39.9909 132.765 39.9909H125.221V22.8054H132.396C135.021 22.8054 137.358 24.5158 137.358 27.4072ZM127.927 25.819V29.8507H131.904C133.585 29.8507 134.61 29.0769 134.61 27.5701C134.61 26.4299 133.708 25.819 132.273 25.819H127.927ZM127.927 32.7013V37.0181H132.56C134.282 37.0181 135.472 36.1629 135.472 34.6154C135.472 33.3937 134.446 32.7013 132.97 32.7013H127.927Z" fill="white"/>
<path d="M150.478 36.8552H142.934L141.786 40.0317H138.998L145.189 22.8054H148.264L154.456 40.0317H151.585L150.478 36.8552ZM144 33.8416H149.412L146.706 26.3484L144 33.8416Z" fill="white"/>
<path d="M160.155 29.9728L164.214 22.8054H167.617L161.508 33.0679V40.0317H158.761V33.1086L152.487 22.8054H156.014L160.155 29.9728Z" fill="white"/>
<path d="M169.38 22.8054H181.189V25.819H172.087V29.7692H180.287V32.7828H172.087V37.0181H181.394V40.0317H169.38V22.8054Z" fill="white"/>
<path d="M190.333 36.5294L195.253 22.8054H198L191.85 40.0317H188.733L182.542 22.8054H185.412L190.333 36.5294Z" fill="white"/>
<path d="M65.4396 55.0588V45.0815H68.1458V54.9774C68.1458 60.1493 64.8246 62.9593 60.9294 62.9593C57.0342 62.9593 53.713 60.1493 53.713 54.9774V45.0815H56.4191V55.0588C56.4191 58.0724 58.3872 59.9457 60.8884 59.9457C63.5125 59.9457 65.4396 58.1131 65.4396 55.0588Z" fill="white"/>
<path d="M74.2141 62.3077H71.508V45.0815H74.6652L82.9886 58.0317V45.0815H85.6948V62.3077H82.5376L74.2141 49.3167V62.3077Z" fill="white"/>
<path d="M91.9681 45.0815H89.262V62.3077H91.9681V45.0815Z" fill="white"/>
<path d="M101.727 58.8054L106.647 45.0815H109.394L103.203 62.3077H100.128L93.9362 45.0815H96.8064L101.727 58.8054Z" fill="white"/>
<path d="M111.362 45.0815H123.171V48.095H114.068V52.0453H122.269V55.0588H114.068V59.2941H123.335V62.3077H111.362V45.0815Z" fill="white"/>
<path d="M137.809 62.6335C136.579 62.6335 135.636 62.0226 134.733 60.638C133.872 59.2941 133.052 57.543 132.191 56.0769H128.829V62.3077H126.123V45.0815H133.134C136.046 45.0815 138.506 47.1991 138.506 50.457C138.506 52.9819 137.112 54.8552 135.103 55.629L136.825 58.5611C137.153 59.1312 137.645 59.4163 138.096 59.4163C138.547 59.4163 139.039 59.1312 139.572 58.6833L140.392 61.371C139.613 62.1855 138.67 62.6335 137.809 62.6335ZM128.829 48.095V53.1855H132.683C134.61 53.1855 135.8 52.2896 135.8 50.457C135.8 48.991 134.774 48.095 133.134 48.095H128.829Z" fill="white"/>
<path d="M152.2 48.9502C150.724 48.1765 148.961 47.5656 147.239 47.5656C145.476 47.5656 144.205 48.095 144.205 49.3982C144.205 51.0272 146.337 51.3937 148.551 52.086C150.97 52.8597 153.513 54 153.513 57.3394C153.513 60.7195 150.683 62.8778 147.321 62.8778C145.312 62.8778 142.934 62.1855 141.335 61.2896L141.991 58.276C143.467 59.0905 145.394 59.8643 147.198 59.8643C149.166 59.8643 150.806 59.2941 150.806 57.4616C150.806 56.0362 149.125 55.5475 147.157 55.0181C144.574 54.2444 141.54 53.1855 141.54 49.6425C141.54 46.5068 143.918 44.5928 147.198 44.5928C149.043 44.5928 151.503 45.2036 152.979 45.9367L152.2 48.9502Z" fill="white"/>
<path d="M158.884 45.0815H156.178V62.3077H158.884V45.0815Z" fill="white"/>
<path d="M160.811 45.0815H174.342V48.095H168.929V62.3077H166.223V48.095H160.811V45.0815Z" fill="white"/>
<path d="M182.132 52.2489L186.191 45.0815H189.595L183.444 55.3439V62.3077H180.738V55.3846L174.465 45.0815H177.991L182.132 52.2489Z" fill="white"/>
</g>
<defs>
<clipPath id="clip0_54_463">
<rect width="198" height="63" fill="white"/>
</clipPath>
</defs>
</svg>
