<?xml version="1.0" encoding="UTF-8"?>
<!DOCTYPE svg PUBLIC "-//W3C//DTD SVG 1.1//EN" "http://www.w3.org/Graphics/SVG/1.1/DTD/svg11.dtd">
<!-- Creator: CorelDRAW -->
<svg xmlns="http://www.w3.org/2000/svg" xml:space="preserve" width="53.8045mm" height="16.6618mm" version="1.1" style="shape-rendering:geometricPrecision; text-rendering:geometricPrecision; image-rendering:optimizeQuality; fill-rule:evenodd; clip-rule:evenodd"
viewBox="0 0 607.13 188.01"
 xmlns:xlink="http://www.w3.org/1999/xlink"
 xmlns:xodm="http://www.corel.com/coreldraw/odm/2003">
 <defs>
  <style type="text/css">
   <![CDATA[
    .fil2 {fill:none}
    .fil1 {fill:white}
    .fil0 {fill:white;fill-rule:nonzero}
   ]]>
  </style>
 </defs>
 <g id="Слой_x0020_1">
  <metadata id="CorelCorpID_0Corel-Layer"/>
  <g id="_41542825184">
   <path class="fil0" d="M220.91 14.95l-14.45 33.44 -5.75 0 -14.81 -33.44 -1.22 37.93 -8.08 0 1.71 -51.43 10.41 0 15.18 34.41c5.02,-11.55 9.92,-23.22 14.69,-34.41l10.04 0 1.71 51.43 -8.2 0 -1.22 -37.93z"/>
   <path class="fil0" d="M269.76 43.41l-22.52 0 -3.43 9.48 -8.2 0 18.48 -51.43 9.18 0 18.48 51.43 -8.57 0 -3.43 -9.48zm-19.34 -9l16.16 0 -8.08 -22.37 -8.08 22.37z"/>
   <path class="fil0" d="M328.27 65.29c-2.82,0 -5.75,-1.34 -8.2,-4.13l-6.24 -7.05c-1.1,0.24 -2.33,0.24 -3.55,0.24 -14.81,0 -24.48,-12.77 -24.48,-27.72 0,-16.9 11.14,-26.63 24.48,-26.63 13.34,0 24.48,9.73 24.48,26.63 0,10.34 -4.53,19.33 -12.12,24.2l1.96 2.07c1.84,1.95 3.55,2.92 5.26,2.92 1.59,0 3.31,-0.97 4.9,-2.07l2.45 8.02c-2.08,1.95 -6.49,3.53 -8.94,3.53zm-34.15 -38.66c0,11.06 7.47,18.72 16.16,18.72 8.69,0 16.16,-7.66 16.16,-18.72 0,-11.06 -7.59,-17.51 -16.16,-17.51 -8.45,0 -16.16,6.44 -16.16,17.51z"/>
   <path class="fil0" d="M373.08 13.13c-4.41,-2.31 -9.67,-4.13 -14.81,-4.13 -5.26,0 -9.06,1.58 -9.06,5.47 0,4.86 6.37,5.96 12.97,8.03 7.23,2.31 14.81,5.71 14.81,15.68 0,10.09 -8.45,16.54 -18.49,16.54 -6,0 -13.1,-2.07 -17.87,-4.74l1.96 -9c4.41,2.43 10.16,4.74 15.55,4.74 5.88,0 10.77,-1.7 10.77,-7.17 0,-4.26 -5.02,-5.71 -10.9,-7.3 -7.71,-2.31 -16.77,-5.47 -16.77,-16.05 0,-9.36 7.1,-15.08 16.89,-15.08 5.51,0 12.86,1.82 17.26,4.01l-2.33 9z"/>
   <path class="fil0" d="M419.35 31.37l0 -29.91 8.08 0 0 29.55c0,15.44 -9.92,23.83 -21.55,23.83 -11.63,0 -21.54,-8.39 -21.54,-23.83l0 -29.55 8.08 0 0 29.79c0,9 5.88,14.59 13.34,14.59 7.71,0 13.59,-5.47 13.59,-14.47z"/>
   <polygon class="fil0" points="432.57,1.46 472.85,1.46 472.85,10.58 456.81,10.58 456.81,52.89 448.6,52.89 448.6,10.58 432.57,10.58 "/>
   <polygon class="fil0" points="185.17,119.4 177.09,119.4 177.09,67.97 186.51,67.97 211.36,106.63 211.36,67.97 219.44,67.97 219.44,119.4 210.02,119.4 185.17,80.73 "/>
   <path class="fil0" d="M259.47 109.91l-22.52 0 -3.43 9.48 -8.2 0 18.48 -51.43 9.18 0 18.48 51.43 -8.57 0 -3.43 -9.48zm-19.34 -9l16.16 0 -8.08 -22.37 -8.08 22.37z"/>
   <path class="fil0" d="M312.23 120.37c-3.67,0 -6.49,-1.82 -9.18,-5.96 -2.57,-4.01 -5.02,-9.24 -7.59,-13.62l-10.04 0 0 18.48 -8.08 0 0 -51.31 20.93 0c8.69,0 16.04,6.32 16.04,16.05 0,7.54 -4.16,13.13 -10.16,15.44l5.14 8.76c0.98,1.7 2.45,2.55 3.79,2.55 1.35,0 2.82,-0.85 4.41,-2.19l2.45 8.02c-2.33,2.43 -5.02,3.77 -7.71,3.77zm-26.81 -43.41l0 15.2 11.51 0c5.75,0 9.3,-2.68 9.3,-8.15 0,-4.38 -3.06,-7.05 -7.96,-7.05l-12.85 0z"/>
   <polygon class="fil0" points="333.9,67.97 325.82,67.97 325.82,119.4 333.9,119.4 "/>
   <polygon class="fil0" points="352.63,94.11 373.69,67.97 383.97,67.97 362.67,93.74 384.21,119.4 373.2,119.4 352.63,94.59 352.63,119.4 344.43,119.4 344.43,67.97 352.63,67.97 "/>
   <path class="fil0" d="M426.08 81.7c0,4.01 -1.59,7.3 -4.16,9.85 3.92,2.31 6.73,6.32 6.73,11.91 0,9.48 -7.1,15.81 -16.28,15.81l-22.52 0 0 -51.31 21.42 0c7.84,0 14.81,5.11 14.81,13.74zm-28.16 -4.74l0 12.04 11.87 0c5.02,0 8.08,-2.31 8.08,-6.81 0,-3.4 -2.69,-5.23 -6.98,-5.23l-12.98 0zm0 20.55l0 12.89 13.83 0c5.14,0 8.69,-2.55 8.69,-7.17 0,-3.65 -3.06,-5.72 -7.47,-5.72l-15.06 0z"/>
   <path class="fil0" d="M465.25 109.91l-22.52 0 -3.43 9.48 -8.32 0 18.48 -51.43 9.18 0 18.49 51.43 -8.57 0 -3.31 -9.48zm-19.34 -9l16.16 0 -8.08 -22.37 -8.08 22.37z"/>
   <polygon class="fil0" points="494.14,89.36 506.26,67.97 516.42,67.97 498.18,98.6 498.18,119.4 489.98,119.4 489.98,98.73 471.25,67.97 481.78,67.97 "/>
   <polygon class="fil0" points="521.69,67.97 556.94,67.97 556.94,76.96 529.77,76.96 529.77,88.76 554.25,88.76 554.25,97.75 529.77,97.75 529.77,110.4 557.55,110.4 557.55,119.4 521.69,119.4 "/>
   <polygon class="fil0" points="584.24,108.94 598.93,67.97 607.13,67.97 588.77,119.4 579.47,119.4 560.98,67.97 569.55,67.97 "/>
   <path class="fil0" d="M211.36 164.26l0 -29.79 8.08 0 0 29.55c0,15.44 -9.92,23.83 -21.54,23.83 -11.63,0 -21.55,-8.39 -21.55,-23.83l0 -29.55 8.08 0 0 29.79c0,9 5.88,14.59 13.34,14.59 7.83,0 13.59,-5.47 13.59,-14.59z"/>
   <polygon class="fil0" points="237.56,185.9 229.48,185.9 229.48,134.47 238.91,134.47 263.76,173.14 263.76,134.47 271.84,134.47 271.84,185.9 262.41,185.9 237.56,147.12 "/>
   <polygon class="fil0" points="290.57,134.47 282.49,134.47 282.49,185.9 290.57,185.9 "/>
   <polygon class="fil0" points="319.7,175.45 334.39,134.47 342.59,134.47 324.11,185.9 314.93,185.9 296.44,134.47 305.01,134.47 "/>
   <polygon class="fil0" points="348.47,134.47 383.72,134.47 383.72,143.47 356.55,143.47 356.55,155.26 381.03,155.26 381.03,164.26 356.55,164.26 356.55,176.91 384.21,176.91 384.21,185.9 348.47,185.9 "/>
   <path class="fil0" d="M427.43 186.88c-3.67,0 -6.49,-1.82 -9.18,-5.96 -2.57,-4.01 -5.02,-9.24 -7.59,-13.62l-10.04 0 0 18.6 -8.08 0 0 -51.43 20.93 0c8.69,0 16.04,6.32 16.04,16.05 0,7.54 -4.16,13.13 -10.16,15.44l5.14 8.75c0.98,1.7 2.45,2.55 3.79,2.55 1.35,0 2.82,-0.85 4.41,-2.19l2.45 8.03c-2.33,2.43 -5.14,3.77 -7.71,3.77zm-26.81 -43.41l0 15.2 11.51 0c5.75,0 9.31,-2.67 9.31,-8.15 0,-4.38 -3.06,-7.05 -7.96,-7.05l-12.85 0z"/>
   <path class="fil0" d="M470.39 146.02c-4.41,-2.31 -9.67,-4.13 -14.81,-4.13 -5.26,0 -9.06,1.58 -9.06,5.47 0,4.86 6.37,5.96 12.98,8.02 7.22,2.31 14.81,5.71 14.81,15.68 0,10.09 -8.45,16.53 -18.49,16.53 -6,0 -13.1,-2.07 -17.87,-4.74l1.96 -9c4.41,2.43 10.16,4.74 15.55,4.74 5.88,0 10.77,-1.7 10.77,-7.17 0,-4.26 -5.02,-5.71 -10.89,-7.3 -7.71,-2.31 -16.77,-5.47 -16.77,-16.05 0,-9.36 7.1,-15.08 16.89,-15.08 5.51,0 12.85,1.82 17.26,4.01l-2.33 9z"/>
   <polygon class="fil0" points="490.35,134.47 482.27,134.47 482.27,185.9 490.35,185.9 "/>
   <polygon class="fil0" points="496.1,134.47 536.5,134.47 536.5,143.47 520.34,143.47 520.34,185.9 512.26,185.9 512.26,143.47 496.1,143.47 "/>
   <polygon class="fil0" points="559.76,155.87 571.88,134.47 582.04,134.47 563.68,165.11 563.68,185.9 555.6,185.9 555.6,165.23 536.87,134.47 547.39,134.47 "/>
   <g id="_32997286144">
    <path class="fil1" d="M127.54 90.55c0.22,4.79 6.87,0.82 9.08,-1.16 1.23,-1.1 2.36,-2.16 3.42,-3.71 2.95,-4.33 12.91,-18.9 18.41,-17.05 4.03,1.35 -1.69,7.68 -2.63,8.78l-7.49 6.75c-1.59,1.1 -2.7,1.78 -3.73,3.4 -0.7,1.09 -2.22,3.74 -1.36,5.49 1.35,2.74 6.3,-3.6 8.64,-4.28 -0.15,1.16 -1.98,3.39 -2.65,4.13 -3.68,4.08 -10.82,5.75 -10.85,-2.13l-4.1 2.86c-2.94,1.77 -7.6,3.05 -10.59,0.87 -1.58,-1.15 -1.5,-2.39 -1.71,-4.85 -3.06,1.13 -4.24,-0.96 -4.91,-1.61 -0.63,0.49 -0.93,1.02 -1.49,1.58 -1.08,1.06 -3.87,3.5 -5.29,4.21 -6.7,3.34 -7.01,-0.77 -7.5,-1.96 -0.24,-0.59 -0.07,-0.28 -0.33,-0.57 -1.89,2.38 -9.17,6.7 -9,-0.81 -2.24,1.43 -6.11,5.38 -8.36,3.58 -0.92,-0.73 -0.76,-2 -0.84,-3.34 -0.57,0.84 -3.34,2.54 -4.96,3.2 -2.35,0.96 -5.01,-0.25 -5.06,-2.57 -0.07,-3.77 5.43,-7.7 5.88,-10.42 -1.94,0.44 -3.66,2.91 -5.79,3.8 0.09,-1.61 2.03,-3.83 2.77,-5.01 1.1,-1.74 -0.73,-3.03 1.54,-5.53 1.02,-1.13 4.07,-2.69 5.3,-0.73 1.45,2.32 -1.91,2.82 -1.91,4.8 1.87,0.49 2.56,-0.18 3.63,1.31 0.41,2.81 -5.71,8.36 -6.4,12.19 4.01,-1.07 8,-7.69 10.82,-10.5 8.01,-7.99 13.84,-0.99 10.77,1.5 -0.55,-0.31 -0.05,0.03 -0.44,-0.38 -0.05,-0.05 -0.35,-0.45 -0.35,-0.45 -3.07,-3.33 -10.46,5.93 -10.3,8.29 1.76,-0.39 6.08,-6.19 8.97,-6.68 3.88,2.77 -0.63,4.65 -0.54,8.33 4.68,-0.44 10.69,-13.34 11.97,-13.7 1.55,0.08 3.42,1.38 3.63,2.53 0.19,1 -1.55,3.06 -2.07,3.82 -1.24,1.8 -4.05,5.29 -4.12,8 3.28,-0.47 7.11,-4.55 8.41,-6.93 1,-1.84 0.96,-3.7 1.85,-5.51 0.71,-1.45 2.3,-3.05 4.63,-2.9 1.78,2.38 0.57,3.38 -0.75,5.42 -1.1,1.71 -2.64,3.68 0.11,4.7 1.06,-0.78 2.19,-1.83 3.12,-2.83 10.41,-11.25 17.28,-4.44 10.7,2.16 -2.95,2.95 -7.18,3.34 -8.12,3.93l-0.01 -0.01zm-66.42 -11.67c-6.83,1.2 -9.22,-5.48 -5.68,-10.01 2.69,-3.43 5.97,-5.95 11.6,-7.43 5.62,-1.47 11.14,-2.09 17.44,-1.33 3.56,0.43 12.57,2.79 12.61,6.29 -2.24,0.3 -5.42,-1.4 -7.8,-1.88 -3.78,-0.76 -4.92,-0.28 -7.32,1.42 -5.96,4.23 -24.68,26.92 -22.24,34.39 -5.19,-0.79 -6.28,-5.37 -3.98,-9.95 3.47,-6.9 13.25,-18.85 19.65,-23.83 0.77,-0.6 1.67,-1.21 2.14,-2.07 -5.61,-0.06 -16.12,4.42 -18.12,8.31 -1.67,3.25 1.72,4.74 1.68,6.08l0 0zm63.34 -54.79c0.87,8.51 -0.84,19.44 0.28,27.77 1.21,8.98 10.71,12.02 17.13,9.21 8.11,-3.54 7.19,-10.95 7.23,-20.76 0.01,-4.63 0.07,-9.25 0.09,-13.87 0.02,-5.13 -0.55,-5.17 1.48,-5.65 1.54,-0.37 4.28,-1.01 5.71,-1.13 0.3,4.37 0.32,30.36 -0.22,34.04 -1.33,8.99 -8.42,15.81 -18.07,16.49 -8.91,0.63 -17.91,-5.64 -20.21,-14.43 -1.31,-5 -0.77,-26.64 -0.76,-33.25 1.68,0.01 6.1,0.8 7.35,1.58l-0.01 -0zm-68.22 9.95c1.46,-2.95 2.91,-5.99 4.33,-9.05 1.07,-2.3 0.75,-3.18 3.6,-3.15 2.13,0.03 4.39,-0.06 6.62,0.07l0.57 35.92c-1.8,0.21 -5.44,0.98 -6.91,0.8 -0.63,-4 0.04,-22.32 -0.8,-24.05 -1.18,2.14 -4.99,11.57 -6.59,14.94 -1.2,2.52 -2.13,4.98 -3.34,7.45 -4.1,8.36 -1.16,6.87 -8.47,7.42 -1.08,-2.56 -2.03,-5.12 -3.33,-7.64 -1.3,-2.53 -2.23,-4.93 -3.51,-7.55 -0.56,-1.13 -6.08,-14.17 -7.05,-14.57 0.02,5.74 -0.1,11.46 -0.18,17.2 -0.04,2.92 0.15,14.96 -0.4,16.88l-7.01 -0.14c-0.44,-2.21 0.53,-30.15 0.61,-35.07 0.06,-3.61 -0.07,-7.95 0.24,-11.53l8.74 0c0.73,0.77 6.28,13.12 7.22,15.15 1.25,2.72 2.34,4.98 3.62,7.7 0.61,1.29 1.13,2.45 1.73,3.79 0.51,1.14 1.33,2.64 1.75,3.78l8.58 -18.35 0.01 0zm19.36 23.03c-0.45,-1.99 -0.09,-30.91 0.04,-35.16l8.48 0.06c1.81,2.02 17.67,28.69 21.93,33.94 0.24,0.3 0.2,0.25 0.42,0.46 0.12,-4.55 -0.26,-32.67 0.24,-34.36 1.91,-0.37 5.11,-0.21 7.17,0.1l-0.05 46.32 -8.18 -0.08 -11.46 -17.51c-1.92,-3.07 -3.72,-5.75 -5.66,-8.82 -0.92,-1.46 -1.85,-2.82 -2.77,-4.34l-2.85 -4.16 -0.18 23.79 -7.12 -0.21 0 -0.01zm52.97 -23.29c0.05,-0.04 0.13,-0.07 0.17,-0.09 0.04,-0.01 0.13,-0.07 0.18,-0.08l1.02 -0.28c0.53,-0.12 0.89,-0.21 1.42,-0.38 2.99,-0.99 4.59,-3.51 2.44,-6.46 -5.4,-7.42 -27.9,-7.42 -30.57,-13.48 1.66,0.36 3.06,1.15 4.96,1.54 6.27,1.31 12.17,-0.18 17.39,0.94 7.04,1.51 11.8,8.11 14.36,9.87 1.78,-1.39 4.67,-5.99 7.63,-8.14 2.89,-2.1 8.01,-4.18 12.35,-2.37 -0.52,0.95 -0.47,0.65 -2.68,1.4 -3.55,1.21 -10.98,2.47 -13.03,6.56 -1.45,2.91 1.62,3.45 2.09,4.95 -1.85,1.03 -2.6,1.02 -4.27,2.31 -2.89,2.22 -4.79,4.76 -8.18,5.07 -2.4,0.21 -3.84,-0.13 -5.27,-1.36l0 0zm-115.23 63.94c2.78,1.22 10.29,2.44 13.64,2.8 27.15,2.93 41.03,-5.76 67.75,13.89 4,2.94 5.82,4.84 9.01,7.36 1.79,1.42 7.03,7.02 8.56,7.48 1.13,-0.86 3.52,-4.45 4.66,-5.83 1.61,-1.95 3.15,-3.73 4.89,-5.65 7.07,-7.82 14.27,-13.74 24.74,-17.49 7.55,-2.71 10.31,-2.19 18.67,-1.71l-0.07 -98.33c-6.17,-0.24 -12.9,0.04 -19.14,0.01 -6.29,-0.02 -12.59,-0.06 -18.87,-0.03l-76.02 -0.02c-4.75,0.01 -36.08,-0.28 -37.89,0.15l0.06 97.38 0 0.01z"/>
    <path class="fil1" d="M-0 100.34c0.31,0.38 0.75,1.46 1.19,1.99 1.16,1.41 2.76,2.99 4.32,4.13 2.04,1.49 4.4,2.91 6.99,4.12 22.14,10.36 67,12.08 80.48,31.18 9.65,13.69 -3.66,21.17 -17.1,21.33 0.79,1.62 4.61,3.33 6.7,4.11 9.51,3.52 17.05,0.77 24.14,-4.67 10.44,-8.03 14.4,-15.83 27.13,-15.57 -0.41,-1.15 -3.9,-3.53 -6.48,-6.59 -1.35,-1.61 -2.86,-1.11 -3.8,-2.55 -0.93,-1.44 -0.56,-3.96 0.08,-5.48 4.18,-9.92 22.34,-15.65 32.39,-18.36 2.78,-0.75 15.2,-4.26 17.92,-5.89 0.84,-0.5 0.7,-0.53 0.91,-0.9 -18.92,-7.14 -33.25,-0.84 -45.3,11.36 -1.1,1.12 -2.11,2.01 -3.17,3.16 -3.26,3.51 -12.87,16.79 -13.56,17.38 -0.5,-0.28 -0.12,-0.02 -0.51,-0.36 -0.06,-0.05 -0.23,-0.21 -0.29,-0.27l-3.94 -4.23c-4.32,-4.89 -5.52,-5.31 -9.76,-9.23 -7.29,-6.75 -18.98,-14.64 -30.27,-16.77 -16.15,-3.06 -29.89,1.27 -53.19,-3.6 -5.53,-1.16 -12.68,-3.85 -14.85,-4.26l0 0z"/>
    <path class="fil2" d="M47.65 52.37c-0.41,-1.13 -1.23,-2.63 -1.75,-3.78 -0.61,-1.34 -1.12,-2.49 -1.73,-3.79 -1.28,-2.72 -2.37,-4.98 -3.62,-7.7 -0.93,-2.04 -6.49,-14.38 -7.22,-15.15l-8.74 0c-0.31,3.58 -0.19,7.92 -0.24,11.53 -0.08,4.92 -1.04,32.85 -0.61,35.07l7.01 0.14c0.56,-1.92 0.36,-13.96 0.4,-16.88 0.08,-5.73 0.2,-11.46 0.18,-17.2 0.97,0.39 6.49,13.43 7.05,14.57 1.28,2.62 2.22,5.02 3.51,7.55 1.3,2.52 2.25,5.08 3.33,7.65 7.32,-0.56 4.38,0.93 8.47,-7.42 1.21,-2.47 2.14,-4.93 3.34,-7.45 1.6,-3.37 5.42,-12.81 6.59,-14.94 0.84,1.73 0.17,20.04 0.8,24.04 1.47,0.19 5.12,-0.59 6.91,-0.8l-0.57 -35.92c-2.24,-0.13 -4.5,-0.04 -6.62,-0.07 -2.85,-0.03 -2.53,0.84 -3.6,3.15 -1.42,3.06 -2.88,6.11 -4.33,9.05l-8.58 18.35 -0.01 0z"/>
    <path class="fil2" d="M75.59 57.05l7.12 0.21 0.18 -23.79 2.85 4.16c0.93,1.52 1.86,2.88 2.78,4.34 1.93,3.07 3.73,5.76 5.66,8.82l11.46 17.51 8.18 0.08 0.05 -46.32c-2.06,-0.31 -5.26,-0.48 -7.17,-0.1 -0.49,1.69 -0.12,29.81 -0.24,34.36 -0.23,-0.21 -0.18,-0.15 -0.42,-0.46 -4.26,-5.25 -20.12,-31.93 -21.93,-33.94l-8.48 -0.06c-0.13,4.24 -0.49,33.18 -0.03,35.16l-0.01 0.01z"/>
    <path class="fil2" d="M127.54 90.55c0.94,-0.6 5.18,-0.98 8.12,-3.93 6.58,-6.59 -0.29,-13.41 -10.7,-2.16 -0.92,1 -2.05,2.05 -3.12,2.83 -2.76,-1.02 -1.22,-2.98 -0.11,-4.7 1.32,-2.04 2.53,-3.04 0.75,-5.42 -2.33,-0.15 -3.92,1.45 -4.63,2.9 -0.88,1.8 -0.84,3.66 -1.85,5.51 -1.3,2.38 -5.13,6.46 -8.41,6.93 0.08,-2.72 2.88,-6.2 4.12,-8 0.51,-0.74 2.26,-2.81 2.07,-3.82 -0.22,-1.15 -2.08,-2.45 -3.63,-2.53 -1.28,0.36 -7.29,13.26 -11.97,13.7 -0.09,-3.68 4.42,-5.56 0.54,-8.33 -2.88,0.49 -7.22,6.28 -8.97,6.68 -0.17,-2.37 7.23,-11.62 10.3,-8.29 0,0 0.31,0.4 0.35,0.45 0.4,0.42 -0.11,0.07 0.44,0.38 3.08,-2.49 -2.75,-9.49 -10.77,-1.5 -2.82,2.81 -6.81,9.42 -10.82,10.5 0.69,-3.83 6.81,-9.38 6.4,-12.19 -1.07,-1.48 -1.77,-0.82 -3.63,-1.31 0.01,-1.98 3.37,-2.48 1.91,-4.8 -1.23,-1.96 -4.28,-0.4 -5.3,0.73 -2.28,2.5 -0.45,3.79 -1.54,5.53 -0.75,1.18 -2.68,3.4 -2.77,5.01 2.12,-0.9 3.85,-3.37 5.79,-3.8 -0.45,2.73 -5.95,6.66 -5.88,10.42 0.05,2.32 2.71,3.53 5.06,2.57 1.61,-0.66 4.39,-2.37 4.96,-3.2 0.08,1.34 -0.08,2.61 0.84,3.34 2.26,1.8 6.13,-2.15 8.36,-3.58 -0.17,7.51 7.11,3.19 9,0.81 0.26,0.29 0.09,-0.01 0.33,0.57 0.49,1.2 0.8,5.31 7.5,1.96 1.42,-0.71 4.21,-3.15 5.29,-4.21 0.56,-0.56 0.86,-1.08 1.49,-1.58 0.68,0.65 1.86,2.75 4.91,1.61 0.21,2.46 0.13,3.71 1.71,4.85 2.99,2.17 7.65,0.89 10.59,-0.87l4.1 -2.86c0.03,7.88 7.17,6.21 10.85,2.13 0.67,-0.74 2.51,-2.98 2.65,-4.13 -2.34,0.68 -7.29,7.01 -8.64,4.28 -0.86,-1.75 0.66,-4.4 1.36,-5.49 1.03,-1.61 2.13,-2.3 3.73,-3.4l7.49 -6.75c0.95,-1.1 6.67,-7.43 2.63,-8.78 -5.5,-1.84 -15.46,12.73 -18.41,17.05 -1.05,1.55 -2.19,2.6 -3.42,3.71 -2.2,1.98 -8.86,5.95 -9.08,1.16l0.01 0.01z"/>
    <path class="fil2" d="M124.45 24.08c-1.25,-0.79 -5.67,-1.57 -7.35,-1.58 -0.01,6.61 -0.55,28.25 0.76,33.25 2.3,8.79 11.3,15.06 20.21,14.43 9.65,-0.68 16.74,-7.51 18.07,-16.49 0.55,-3.68 0.53,-29.67 0.22,-34.04 -1.43,0.11 -4.17,0.76 -5.71,1.13 -2.02,0.48 -1.46,0.52 -1.48,5.65 -0.02,4.62 -0.07,9.25 -0.09,13.87 -0.03,9.8 0.88,17.21 -7.22,20.76 -6.42,2.81 -15.92,-0.23 -17.13,-9.21 -1.12,-8.33 0.59,-19.26 -0.28,-27.77l0 0z"/>
    <path class="fil1" d="M154.98 187.72c1.5,0.4 8.17,0.17 10.2,0.09l-0.07 -69.83c-1.69,-0.1 -8.51,2.02 -10.33,2.68l0.2 67.06 -0 0z"/>
    <path class="fil1" d="M13.31 188.01l10.16 -0.09 0.01 -66.76c-0.24,-0.15 -9.57,-3.51 -10.24,-3.69l0.03 62.83 0.03 7.7 0 0z"/>
    <polygon class="fil1" points="33.45,187.88 43.71,187.98 43.7,126.03 33.38,123.76 "/>
    <path class="fil1" d="M53.77 187.93l10.09 -0.04 -0.04 -56.45c-1.9,-0.79 -7.94,-2.47 -10.16,-2.82l0.08 53.26 0.03 6.05z"/>
    <path class="fil1" d="M145.03 123.98c-1.76,0.36 -7.53,3.2 -9.15,4.2 -1.09,0.67 -1.21,0.6 -1.29,2.13 -0.59,11.56 0.43,8.71 3.88,12.18 4.24,4.27 2.66,8.73 -3.84,11.1l0.09 34.27 10.21 0.01 0.11 -63.89 -0 0z"/>
    <path class="fil2" d="M61.12 78.87c0.04,-1.34 -3.36,-2.83 -1.68,-6.08 2,-3.89 12.51,-8.38 18.12,-8.31 -0.47,0.87 -1.37,1.47 -2.14,2.07 -6.39,4.97 -16.19,16.93 -19.65,23.83 -2.3,4.59 -1.22,9.16 3.98,9.95 -2.45,-7.47 16.28,-30.15 22.24,-34.39 2.4,-1.7 3.54,-2.18 7.32,-1.42 2.38,0.48 5.56,2.18 7.8,1.88 -0.04,-3.5 -9.05,-5.85 -12.61,-6.29 -6.29,-0.77 -11.81,-0.15 -17.44,1.33 -5.64,1.47 -8.92,3.99 -11.6,7.43 -3.55,4.53 -1.16,11.21 5.68,10.01l0 -0.01z"/>
    <path class="fil1" d="M124.8 155.41c-2.54,1.37 -6.57,5.53 -9.04,7.38 -1.56,1.17 -1.38,1.56 -1.37,3.9 0.01,6.93 -0.27,14.32 0.03,21.19l10.34 0.01 0.04 -32.49 0 0.01z"/>
    <path class="fil2" d="M128.55 33.76c1.43,1.22 2.87,1.57 5.27,1.36 3.4,-0.3 5.29,-2.85 8.18,-5.07 1.67,-1.28 2.42,-1.27 4.27,-2.31 -0.46,-1.5 -3.54,-2.05 -2.09,-4.95 2.05,-4.09 9.49,-5.35 13.03,-6.56 2.21,-0.76 2.16,-0.45 2.68,-1.4 -4.34,-1.81 -9.47,0.27 -12.35,2.37 -2.97,2.16 -5.85,6.75 -7.63,8.14 -2.56,-1.76 -7.32,-8.36 -14.36,-9.87 -5.22,-1.12 -11.12,0.36 -17.39,-0.94 -1.9,-0.4 -3.29,-1.18 -4.96,-1.54 2.67,6.07 25.17,6.06 30.57,13.48 2.15,2.95 0.56,5.47 -2.44,6.46 -0.53,0.17 -0.89,0.26 -1.42,0.38l-1.02 0.28c-0.05,0.02 -0.14,0.07 -0.18,0.08 -0.04,0.02 -0.12,0.05 -0.17,0.09l0 -0.01z"/>
    <path class="fil1" d="M73.93 157.39c4.57,-0.01 6.51,-0.77 10.22,-1.92l-0.06 -14.68c-2.12,-1.73 -7.06,-4.66 -10.16,-5.61l-0.01 22.21 0.01 0z"/>
    <path class="fil1" d="M73.89 187.93l10.2 -0.02 -0.01 -13.88c-1.79,-0.71 -3.45,-1.05 -5.23,-1.89l-4.99 -2.51 0.08 16.43 -0.05 1.87 0 0z"/>
    <path class="fil1" d="M94.07 188l10.37 -0.07 0.02 -16.72c-3.44,1.28 -6.07,2.95 -10.36,3.25l-0.01 10.82 -0.03 2.72 0 -0z"/>
   </g>
  </g>
 </g>
</svg>
