<?xml version="1.0" encoding="UTF-8"?>
<!DOCTYPE svg PUBLIC "-//W3C//DTD SVG 1.1//EN" "http://www.w3.org/Graphics/SVG/1.1/DTD/svg11.dtd">
<!-- Creator: CorelDRAW -->
<svg xmlns="http://www.w3.org/2000/svg" xml:space="preserve" width="55.6978mm" height="60.7992mm" version="1.1" style="shape-rendering:geometricPrecision; text-rendering:geometricPrecision; image-rendering:optimizeQuality; fill-rule:evenodd; clip-rule:evenodd"
viewBox="0 0 346.53 378.27"
 xmlns:xlink="http://www.w3.org/1999/xlink"
 xmlns:xodm="http://www.corel.com/coreldraw/odm/2003">
 <defs>
  <style type="text/css">
   <![CDATA[
    .fil5 {fill:#A90403}
    .fil1 {fill:#AB0505}
    .fil0 {fill:#AD0504}
    .fil4 {fill:#F3F7F9}
    .fil3 {fill:#F6FBFC}
    .fil2 {fill:#F8FCFD}
   ]]>
  </style>
 </defs>
 <g id="Слой_x0020_1">
  <metadata id="CorelCorpID_0Corel-Layer"/>
  <g id="_32997286144">
   <path class="fil0" d="M252.78 182.08c0.43,9.64 13.62,1.66 17.99,-2.33 2.43,-2.22 4.68,-4.34 6.78,-7.46 5.84,-8.71 25.59,-38.04 36.48,-34.33 7.99,2.72 -3.34,15.47 -5.21,17.68l-14.85 13.58c-3.16,2.21 -5.35,3.59 -7.39,6.84 -1.38,2.2 -4.4,7.52 -2.69,11.05 2.67,5.51 12.48,-7.24 17.12,-8.61 -0.29,2.33 -3.93,6.83 -5.25,8.31 -7.29,8.21 -21.44,11.58 -21.5,-4.29l-8.12 5.75c-5.83,3.56 -15.06,6.13 -20.98,1.76 -3.13,-2.31 -2.97,-4.82 -3.38,-9.77 -6.06,2.28 -8.4,-1.94 -9.74,-3.24 -1.24,0.98 -1.84,2.05 -2.95,3.17 -2.14,2.14 -7.68,7.05 -10.49,8.48 -13.28,6.73 -13.89,-1.54 -14.87,-3.95 -0.48,-1.19 -0.14,-0.57 -0.66,-1.15 -3.74,4.78 -18.18,13.48 -17.84,-1.64 -4.43,2.87 -12.11,10.83 -16.58,7.2 -1.82,-1.47 -1.51,-4.03 -1.66,-6.72 -1.13,1.69 -6.63,5.12 -9.83,6.45 -4.65,1.93 -9.93,-0.5 -10.02,-5.18 -0.14,-7.59 10.76,-15.5 11.65,-20.98 -3.84,0.88 -7.26,5.85 -11.47,7.66 0.18,-3.24 4.02,-7.71 5.5,-10.09 2.18,-3.5 -1.45,-6.09 3.06,-11.13 2.03,-2.27 8.07,-5.41 10.51,-1.47 2.88,4.67 -3.78,5.68 -3.79,9.66 3.7,0.99 5.08,-0.36 7.2,2.63 0.81,5.66 -11.32,16.83 -12.69,24.54 7.94,-2.16 15.86,-15.49 21.44,-21.13 15.88,-16.09 27.44,-2 21.35,3.01 -1.1,-0.63 -0.09,0.07 -0.88,-0.77 -0.09,-0.09 -0.7,-0.9 -0.7,-0.9 -6.08,-6.71 -20.73,11.93 -20.41,16.68 3.48,-0.79 12.06,-12.46 17.78,-13.44 7.69,5.58 -1.25,9.36 -1.07,16.77 9.27,-0.89 21.18,-26.85 23.72,-27.58 3.08,0.16 6.78,2.78 7.2,5.1 0.37,2.02 -3.08,6.17 -4.1,7.68 -2.46,3.63 -8.02,10.64 -8.17,16.11 6.51,-0.94 14.1,-9.16 16.67,-13.94 1.99,-3.7 1.91,-7.45 3.66,-11.08 1.41,-2.92 4.56,-6.14 9.18,-5.84 3.53,4.78 1.13,6.8 -1.48,10.9 -2.19,3.45 -5.24,7.4 0.22,9.45 2.11,-1.56 4.35,-3.69 6.18,-5.69 20.63,-22.65 34.25,-8.93 21.2,4.35 -5.84,5.94 -14.24,6.72 -16.1,7.92zm-131.65 -23.5c-13.54,2.42 -18.28,-11.03 -11.25,-20.15 5.33,-6.9 11.83,-11.98 23,-14.95 11.14,-2.96 22.08,-4.21 34.56,-2.67 7.06,0.87 24.92,5.62 24.99,12.66 -4.43,0.6 -10.74,-2.82 -15.45,-3.78 -7.49,-1.53 -9.75,-0.57 -14.51,2.86 -11.81,8.52 -48.92,54.18 -44.07,69.22 -10.29,-1.6 -12.44,-10.8 -7.88,-20.03 6.87,-13.89 26.27,-37.95 38.95,-47.96 1.53,-1.21 3.31,-2.43 4.24,-4.17 -11.11,-0.13 -31.94,8.9 -35.91,16.73 -3.32,6.54 3.41,9.54 3.33,12.23zm125.53 -110.29c1.73,17.13 -1.66,39.13 0.56,55.9 2.4,18.08 21.22,24.19 33.95,18.54 16.07,-7.13 14.26,-22.05 14.32,-41.78 0.03,-9.31 0.13,-18.61 0.17,-27.92 0.04,-10.33 -1.08,-10.4 2.93,-11.38 3.05,-0.74 8.48,-2.04 11.32,-2.27 0.6,8.8 0.64,61.11 -0.44,68.52 -2.64,18.09 -16.68,31.83 -35.81,33.2 -17.65,1.26 -35.49,-11.35 -40.05,-29.05 -2.59,-10.07 -1.52,-53.63 -1.51,-66.93 3.34,0.03 12.1,1.6 14.57,3.18zm-135.21 20.02c2.89,-5.93 5.76,-12.05 8.58,-18.22 2.12,-4.64 1.48,-6.41 7.13,-6.34 4.22,0.06 8.7,-0.12 13.13,0.14l1.12 72.31c-3.56,0.42 -10.79,1.98 -13.7,1.6 -1.25,-8.06 0.08,-44.92 -1.58,-48.4 -2.33,4.3 -9.89,23.29 -13.07,30.08 -2.38,5.08 -4.23,10.03 -6.62,15 -8.12,16.82 -2.3,13.82 -16.79,14.94 -2.14,-5.16 -4.03,-10.31 -6.6,-15.39 -2.57,-5.09 -4.42,-9.92 -6.96,-15.2 -1.1,-2.28 -12.05,-28.53 -13.97,-29.32 0.04,11.55 -0.2,23.07 -0.35,34.62 -0.08,5.88 0.3,30.11 -0.8,33.98l-13.89 -0.28c-0.87,-4.45 1.05,-60.69 1.2,-70.59 0.11,-7.27 -0.13,-16 0.48,-23.21l17.32 0c1.44,1.55 12.45,26.4 14.3,30.5 2.47,5.47 4.63,10.02 7.17,15.5 1.21,2.6 2.23,4.93 3.42,7.62 1.02,2.3 2.64,5.32 3.47,7.6l17 -36.94zm38.37 46.35c-0.9,-4 -0.18,-62.23 0.07,-70.77l16.81 0.11c3.59,4.06 35.02,57.76 43.47,68.32 0.48,0.6 0.39,0.5 0.84,0.92 0.24,-9.16 -0.51,-65.77 0.47,-69.17 3.79,-0.75 10.13,-0.42 14.21,0.21l-0.1 93.23 -16.22 -0.17 -22.72 -35.24c-3.81,-6.17 -7.38,-11.58 -11.21,-17.76 -1.82,-2.94 -3.66,-5.68 -5.5,-8.73l-5.65 -8.38 -0.36 47.88 -14.12 -0.43zm104.98 -46.88c0.1,-0.08 0.26,-0.15 0.34,-0.18 0.08,-0.03 0.26,-0.13 0.35,-0.17l2.02 -0.57c1.06,-0.25 1.77,-0.42 2.82,-0.77 5.93,-1.99 9.09,-7.06 4.83,-13 -10.71,-14.94 -55.29,-14.93 -60.59,-27.14 3.29,0.73 6.06,2.32 9.83,3.11 12.43,2.63 24.12,-0.36 34.47,1.9 13.95,3.05 23.39,16.32 28.46,19.86 3.53,-2.8 9.25,-12.05 15.12,-16.39 5.72,-4.22 15.88,-8.41 24.48,-4.77 -1.03,1.91 -0.94,1.3 -5.32,2.82 -7.03,2.44 -21.77,4.98 -25.83,13.21 -2.88,5.85 3.22,6.94 4.14,9.97 -3.66,2.08 -5.15,2.06 -8.46,4.64 -5.73,4.47 -9.49,9.59 -16.21,10.2 -4.76,0.43 -7.61,-0.27 -10.45,-2.73zm-228.38 128.71c5.51,2.46 20.4,4.91 27.03,5.63 53.81,5.9 81.32,-11.6 134.28,27.96 7.92,5.91 11.53,9.74 17.85,14.81 3.55,2.85 13.94,14.14 16.97,15.05 2.23,-1.74 6.97,-8.96 9.23,-11.74 3.19,-3.92 6.25,-7.5 9.7,-11.37 14.02,-15.74 28.29,-27.65 49.04,-35.21 14.97,-5.45 20.43,-4.41 37.01,-3.45l-0.14 -197.93c-12.23,-0.48 -25.56,0.09 -37.94,0.03 -12.46,-0.05 -24.95,-0.13 -37.4,-0.06l-150.66 -0.04c-9.42,0.02 -71.51,-0.57 -75.09,0.3l0.12 196.01z"/>
   <path class="fil1" d="M-0 201.79c0.61,0.77 1.48,2.93 2.35,4 2.3,2.83 5.47,6.02 8.56,8.31 4.04,2.99 8.71,5.85 13.85,8.29 43.89,20.86 132.79,24.31 159.5,62.77 19.13,27.56 -7.25,42.61 -33.9,42.94 1.57,3.27 9.13,6.71 13.28,8.27 18.84,7.09 33.79,1.56 47.84,-9.41 20.7,-16.17 28.54,-31.87 53.77,-31.33 -0.82,-2.32 -7.74,-7.1 -12.85,-13.27 -2.68,-3.24 -5.67,-2.23 -7.53,-5.14 -1.85,-2.89 -1.11,-7.97 0.16,-11.03 8.29,-19.96 44.27,-31.51 64.2,-36.96 5.52,-1.51 30.12,-8.58 35.51,-11.85 1.67,-1.01 1.39,-1.06 1.8,-1.82 -37.5,-14.37 -65.89,-1.69 -89.78,22.86 -2.19,2.25 -4.18,4.05 -6.29,6.35 -6.47,7.06 -25.5,33.8 -26.87,34.99 -0.99,-0.56 -0.23,-0.05 -1.02,-0.73 -0.12,-0.1 -0.46,-0.43 -0.57,-0.54l-7.81 -8.52c-8.56,-9.85 -10.94,-10.69 -19.34,-18.59 -14.45,-13.59 -37.61,-29.46 -60,-33.76 -32,-6.15 -59.24,2.55 -105.42,-7.25 -10.96,-2.33 -25.14,-7.74 -29.44,-8.58z"/>
   <path class="fil2" d="M94.45 105.24c-0.82,-2.28 -2.44,-5.3 -3.47,-7.6 -1.2,-2.69 -2.22,-5.02 -3.42,-7.62 -2.54,-5.47 -4.7,-10.03 -7.17,-15.5 -1.85,-4.1 -12.86,-28.95 -14.3,-30.5l-17.32 -0c-0.61,7.21 -0.37,15.94 -0.48,23.21 -0.15,9.9 -2.07,66.13 -1.2,70.59l13.89 0.28c1.1,-3.87 0.72,-28.1 0.8,-33.98 0.15,-11.54 0.39,-23.07 0.35,-34.62 1.92,0.79 12.87,27.04 13.97,29.32 2.54,5.28 4.39,10.1 6.96,15.2 2.57,5.08 4.46,10.23 6.6,15.39 14.5,-1.12 8.68,1.87 16.79,-14.94 2.4,-4.97 4.24,-9.92 6.62,-15 3.18,-6.79 10.74,-25.78 13.07,-30.08 1.66,3.48 0.33,40.34 1.58,48.4 2.91,0.38 10.14,-1.18 13.7,-1.6l-1.12 -72.31c-4.43,-0.26 -8.91,-0.08 -13.13,-0.14 -5.65,-0.07 -5.01,1.7 -7.13,6.34 -2.82,6.17 -5.7,12.29 -8.58,18.22l-17 36.94z"/>
   <path class="fil3" d="M149.82 114.65l14.12 0.43 0.36 -47.88 5.65 8.38c1.84,3.05 3.68,5.79 5.5,8.73 3.83,6.18 7.4,11.59 11.21,17.76l22.72 35.24 16.22 0.17 0.1 -93.23c-4.08,-0.62 -10.42,-0.96 -14.21,-0.21 -0.98,3.4 -0.23,60.01 -0.47,69.17 -0.45,-0.42 -0.36,-0.31 -0.84,-0.92 -8.45,-10.57 -39.87,-64.27 -43.47,-68.32l-16.81 -0.11c-0.25,8.54 -0.97,66.78 -0.07,70.77z"/>
   <path class="fil4" d="M252.78 182.08c1.87,-1.2 10.27,-1.98 16.1,-7.92 13.05,-13.27 -0.57,-27 -21.2,-4.35 -1.83,2.01 -4.06,4.13 -6.18,5.69 -5.46,-2.05 -2.41,-6 -0.22,-9.45 2.61,-4.11 5.01,-6.12 1.48,-10.9 -4.62,-0.3 -7.76,2.92 -9.18,5.84 -1.75,3.62 -1.67,7.37 -3.66,11.08 -2.57,4.79 -10.16,13.01 -16.67,13.94 0.15,-5.47 5.71,-12.48 8.17,-16.11 1.02,-1.5 4.47,-5.65 4.1,-7.68 -0.43,-2.32 -4.12,-4.94 -7.2,-5.1 -2.54,0.72 -14.45,26.69 -23.72,27.58 -0.18,-7.41 8.76,-11.19 1.07,-16.77 -5.71,0.98 -14.3,12.65 -17.78,13.44 -0.33,-4.76 14.33,-23.39 20.41,-16.68 0,0 0.62,0.81 0.7,0.9 0.79,0.84 -0.22,0.14 0.88,0.77 6.1,-5.01 -5.46,-19.1 -21.35,-3.01 -5.58,5.65 -13.5,18.97 -21.44,21.13 1.37,-7.71 13.5,-18.88 12.69,-24.54 -2.12,-2.99 -3.5,-1.65 -7.2,-2.63 0.02,-3.98 6.67,-5 3.79,-9.66 -2.44,-3.95 -8.48,-0.8 -10.51,1.47 -4.51,5.04 -0.89,7.63 -3.06,11.13 -1.48,2.38 -5.32,6.85 -5.5,10.09 4.21,-1.81 7.63,-6.78 11.47,-7.66 -0.89,5.49 -11.8,13.4 -11.65,20.98 0.09,4.68 5.37,7.1 10.02,5.18 3.2,-1.33 8.7,-4.76 9.83,-6.45 0.15,2.69 -0.16,5.25 1.66,6.72 4.47,3.62 12.15,-4.33 16.58,-7.2 -0.34,15.12 14.1,6.43 17.84,1.64 0.52,0.58 0.18,-0.03 0.66,1.15 0.98,2.42 1.59,10.68 14.87,3.95 2.81,-1.42 8.35,-6.34 10.49,-8.48 1.12,-1.12 1.71,-2.18 2.95,-3.17 1.34,1.3 3.68,5.53 9.74,3.24 0.41,4.95 0.25,7.46 3.38,9.77 5.92,4.37 15.16,1.79 20.98,-1.76l8.12 -5.75c0.06,15.87 14.21,12.51 21.5,4.29 1.32,-1.49 4.97,-5.99 5.25,-8.31 -4.64,1.37 -14.45,14.12 -17.12,8.61 -1.71,-3.52 1.31,-8.85 2.69,-11.05 2.04,-3.25 4.23,-4.64 7.39,-6.84l14.85 -13.58c1.88,-2.21 13.21,-14.96 5.21,-17.68 -10.89,-3.7 -30.64,25.62 -36.48,34.33 -2.09,3.12 -4.34,5.24 -6.78,7.46 -4.37,3.99 -17.56,11.97 -17.99,2.33z"/>
   <path class="fil2" d="M246.66 48.28c-2.47,-1.58 -11.23,-3.15 -14.57,-3.18 -0.01,13.31 -1.08,56.86 1.51,66.93 4.56,17.7 22.4,30.31 40.05,29.05 19.13,-1.36 33.17,-15.11 35.81,-33.2 1.08,-7.4 1.04,-59.72 0.44,-68.52 -2.84,0.23 -8.27,1.53 -11.32,2.27 -4.01,0.97 -2.89,1.04 -2.93,11.38 -0.04,9.3 -0.14,18.61 -0.17,27.92 -0.06,19.73 1.75,34.65 -14.32,41.78 -12.73,5.65 -31.55,-0.46 -33.95,-18.54 -2.22,-16.77 1.17,-38.77 -0.56,-55.9z"/>
   <path class="fil5" d="M307.17 377.69c2.98,0.81 16.2,0.35 20.22,0.19l-0.13 -140.57c-3.35,-0.21 -16.86,4.07 -20.48,5.39l0.39 134.99z"/>
   <path class="fil5" d="M26.37 378.27l20.14 -0.18 0.03 -134.38c-0.47,-0.31 -18.96,-7.06 -20.29,-7.42l0.06 126.47 0.06 15.51z"/>
   <polygon class="fil1" points="66.29,378.01 86.63,378.2 86.62,253.51 66.15,248.94 "/>
   <path class="fil5" d="M106.56 378.1l19.99 -0.08 -0.08 -113.63c-3.77,-1.6 -15.74,-4.98 -20.13,-5.67l0.15 107.2 0.07 12.18z"/>
   <path class="fil5" d="M287.45 249.37c-3.49,0.73 -14.93,6.45 -18.14,8.45 -2.17,1.35 -2.4,1.21 -2.55,4.29 -1.16,23.26 0.86,17.53 7.69,24.52 8.4,8.6 5.28,17.58 -7.62,22.34l0.18 68.98 20.24 0.03 0.21 -128.61z"/>
   <path class="fil2" d="M121.14 158.58c0.08,-2.69 -6.65,-5.69 -3.33,-12.23 3.97,-7.83 24.8,-16.86 35.91,-16.73 -0.93,1.74 -2.71,2.96 -4.24,4.17 -12.67,10.01 -32.08,34.07 -38.95,47.96 -4.56,9.23 -2.41,18.43 7.88,20.03 -4.85,-15.04 32.26,-60.69 44.07,-69.22 4.75,-3.43 7.01,-4.39 14.51,-2.86 4.71,0.96 11.01,4.39 15.45,3.78 -0.07,-7.04 -17.94,-11.78 -24.99,-12.66 -12.47,-1.54 -23.41,-0.3 -34.56,2.67 -11.17,2.97 -17.67,8.04 -23,14.95 -7.03,9.12 -2.29,22.57 11.25,20.15z"/>
   <path class="fil5" d="M247.35 312.65c-5.03,2.75 -13.02,11.14 -17.92,14.86 -3.1,2.36 -2.73,3.14 -2.72,7.85 0.03,13.94 -0.54,28.83 0.06,42.65l20.5 0.03 0.08 -65.4z"/>
   <path class="fil2" d="M254.79 67.77c2.83,2.46 5.68,3.16 10.45,2.73 6.73,-0.61 10.48,-5.73 16.21,-10.2 3.31,-2.58 4.8,-2.56 8.46,-4.64 -0.92,-3.02 -7.02,-4.12 -4.14,-9.97 4.06,-8.23 18.8,-10.77 25.83,-13.21 4.38,-1.52 4.29,-0.91 5.32,-2.82 -8.6,-3.64 -18.76,0.55 -24.48,4.77 -5.88,4.34 -11.59,13.59 -15.12,16.39 -5.08,-3.54 -14.51,-16.82 -28.46,-19.86 -10.35,-2.26 -22.04,0.72 -34.47,-1.9 -3.76,-0.8 -6.53,-2.38 -9.83,-3.11 5.3,12.21 49.88,12.2 60.59,27.14 4.26,5.94 1.11,11.01 -4.83,13 -1.05,0.35 -1.76,0.52 -2.82,0.77l-2.02 0.57c-0.1,0.04 -0.27,0.14 -0.35,0.17 -0.08,0.03 -0.24,0.1 -0.34,0.18z"/>
   <path class="fil5" d="M146.52 316.62c9.05,-0.01 12.91,-1.54 20.25,-3.86l-0.11 -29.55c-4.2,-3.49 -14,-9.38 -20.13,-11.3l-0.02 44.71z"/>
   <path class="fil5" d="M146.44 378.11l20.21 -0.04 -0.03 -27.94c-3.55,-1.43 -6.83,-2.12 -10.36,-3.8l-9.89 -5.06 0.17 33.08 -0.1 3.76z"/>
   <path class="fil5" d="M186.44 378.24l20.56 -0.14 0.04 -33.66c-6.82,2.58 -12.03,5.93 -20.53,6.55l-0.01 21.79 -0.06 5.47z"/>
  </g>
 </g>
</svg>
